<?xml version="1.0" encoding="utf-8"?><svg version="1.1" id="hash-icon" xmlns="http://www.w3.org/2000/svg" xmlns:xlink="http://www.w3.org/1999/xlink" x="0px" y="0px" viewBox="0 0 600 600" enable-background="new 0 0 600 600" xml:space="preserve">  <polygon fill="#555d66" points="210,308.8 150,300 90,541.4 149.3,541.4 "/>  <polygon fill="#555d66" points="297.1,420 270,541.4 326.1,541.4 "/>  <g>    <polygon fill="#555d66" points="539.9,484.9 300,300 483.4,541.4 "/>    <polygon fill="#555d66" points="59.5,117.3 300,300 120,60 "/>    <polygon fill="#555d66" points="420,540 300,300 359.8,540 "/>    <polygon fill="#555d66" points="180,61.2 300,300 240,61.2 "/>    <polygon fill="#555d66" points="539.9,360 300,300 539.9,420 "/>    <polygon fill="#555d66" points="60,240 300,300 60,180 "/>  </g>  <polygon fill="#555d66" points="284.3,360 59.7,360 59.5,420 297.1,420 "/>  <polygon fill="#555d66" points="390,293.1 450,300 510,61.2 450,61.2 "/>  <polygon fill="#555d66" points="302.7,178.5 330,61.2 275.5,61.2 "/>  <polygon fill="#555d66" points="315,239.4 539.9,239.4 539.9,180.6 302.7,178.5 "/></svg>