<?xml version="1.0" encoding="utf-8"?>
<svg version="1.1" id="Layer_1" xmlns="http://www.w3.org/2000/svg" xmlns:xlink="http://www.w3.org/1999/xlink" x="0px" y="0px"
	 viewBox="0 0 612 612" enable-background="new 0 0 612 612" xml:space="preserve">
<g id="Layer_1_1_">
	<g id="space">

			<linearGradient id="SVGID_1_" gradientUnits="userSpaceOnUse" x1="225.329" y1="66.3486" x2="389.329" y2="726.3485" gradientTransform="matrix(1 0 0 1 0 -85)">
			<stop  offset="0" style="stop-color:#EBDCD6"/>
			<stop  offset="0.2517" style="stop-color:#D6D3CE"/>
			<stop  offset="0.7689" style="stop-color:#A0BEBB"/>
			<stop  offset="1" style="stop-color:#86B3B1"/>
		</linearGradient>
		<rect fill="url(#SVGID_1_)" width="612" height="612"/>
	</g>
</g>
<g id="Layer_3">
	<polygon opacity="0.5" fill="#FFFFFF" enable-background="new    " points="45,83 17,123 26,494 60,525 551,517 592,476 586,100
		539,74 	"/>
	<polygon opacity="0.5" fill="#FFFFFF" enable-background="new    " points="49.5,86.8 22,126.1 30.8,490.6 64.3,521.1 546.7,513.2
		587,472.9 581.1,103.5 534.9,77.9 	"/>
	<g>
		<path d="M80.2,78v5.3H47.7V78H80.2z"/>
		<path d="M112.7,78v5.3H80.2V78H112.7z"/>
		<path d="M145.2,78v5.3h-32.5V78H145.2z"/>
		<path d="M177.8,78v5.3h-32.5V78H177.8z"/>
		<path d="M210.3,78v5.3h-32.5V78H210.3z"/>
		<path d="M242.8,78v5.3h-32.5V78H242.8z"/>
		<path d="M275.3,78v5.3h-32.5V78H275.3z"/>
		<path d="M307.8,78v5.3h-32.5V78H307.8z"/>
		<path d="M340.3,78v5.3h-32.5V78H340.3z"/>
		<path d="M372.8,78v5.3h-32.5V78H372.8z"/>
		<path d="M405.3,78v5.3h-32.5V78H405.3z"/>
		<path d="M437.8,78v5.3h-32.5V78H437.8z"/>
		<path d="M470.3,78v5.3h-32.5V78H470.3z"/>
		<path d="M502.9,78v5.3h-32.5V78H502.9z"/>
		<path d="M535.4,78v5.3h-32.5V78H535.4z"/>
		<path d="M567.9,78v5.3h-32.5V78H567.9z"/>
		<path d="M38.9,87.7h5.8L24,132h-5.8L38.9,87.7z"/>
		<path fill="#0099CC" d="M50.4,107.9h27.9v7.1H50.4V107.9z"/>
		<path fill="#0099CC" d="M82.9,107.9h27.9v7.1H82.9V107.9z"/>
		<path fill="#0099CC" d="M115.4,107.9h27.9v7.1h-27.9V107.9z"/>
		<path fill="#0099CC" d="M147.9,107.9h27.9v7.1h-27.9V107.9z"/>
		<path fill="#0099CC" d="M180.4,107.9h27.9v7.1h-27.9V107.9z"/>
		<path fill="#0099CC" d="M213,107.9h27.9v7.1H213V107.9z"/>
		<path fill="#0099CC" d="M245.5,107.9h27.9v7.1h-27.9V107.9z"/>
		<path fill="#0099CC" d="M278,107.9h27.9v7.1H278V107.9z"/>
		<path fill="#0099CC" d="M310.5,107.9h27.9v7.1h-27.9V107.9z"/>
		<path fill="#0099CC" d="M343,107.9h27.9v7.1H343V107.9z"/>
		<path fill="#0099CC" d="M375.5,107.9h27.9v7.1h-27.9V107.9z"/>
		<path fill="#0099CC" d="M408,107.9h28v7.1h-28V107.9z"/>
		<path fill="#0099CC" d="M440.5,107.9h27.9v7.1h-27.9V107.9z"/>
		<path fill="#0099CC" d="M473,107.9h28v7.1h-28V107.9z"/>
		<path fill="#0099CC" d="M505.5,107.9h27.9v7.1h-27.9L505.5,107.9L505.5,107.9z"/>
		<path fill="#0099CC" d="M538.1,107.9H566v7.1h-27.9V107.9z"/>
		<path d="M576.7,87.7l20.7,44.4h-5.9l-20.7-44.4L576.7,87.7L576.7,87.7z"/>
		<path d="M34.4,140v54h-6v-54H34.4z"/>
		<path fill="#0099CC" d="M66.4,142.3l-2.5,9.9h5.4l2.5-9.9h5.9l-2.6,9.9h5.1v5.7h-6.5l-2,7.7h5.4v5.7h-6.8l-2.5,9.8H62l2.5-9.8H59
			l-2.5,9.8h-5.8l2.5-9.8h-5.5v-5.7h6.9l2-7.7h-5.8v-5.7H58l2.5-9.9H66.4z M67.8,157.8h-5.4l-2,7.7h5.4L67.8,157.8z"/>
		<path fill="#0099CC" d="M98.9,142.3l-2.5,9.9h5.4l2.5-9.9h5.9l-2.6,9.9h5.1v5.7h-6.5l-2,7.7h5.4v5.7h-6.8l-2.5,9.8h-5.8l2.5-9.8
			h-5.4l-2.5,9.8h-5.8l2.5-9.8h-5.5v-5.7h6.9l2-7.7h-5.8v-5.7h7.2l2.5-9.9H98.9z M100.3,157.8h-5.4l-2,7.7h5.4L100.3,157.8z"/>
		<path fill="#0099CC" d="M131.4,142.3l-2.5,9.9h5.4l2.5-9.9h5.9l-2.6,9.9h5.1v5.7h-6.5l-2,7.7h5.4v5.7h-6.8l-2.5,9.8H127l2.5-9.8
			h-5.4l-2.5,9.8h-5.8l2.5-9.8h-5.5v-5.7h6.9l2-7.7h-5.8v-5.7h7.2l2.5-9.9H131.4z M132.8,157.8h-5.4l-2,7.7h5.4L132.8,157.8z"/>
		<path fill="#FFFFFF" d="M163.9,142.3l-2.5,9.9h5.4l2.5-9.9h5.9l-2.6,9.9h5.1v5.7h-6.5l-2,7.7h5.4v5.7h-6.8l-2.5,9.8h-5.8l2.5-9.8
			h-5.4l-2.5,9.8h-5.8l2.5-9.8h-5.5v-5.7h6.9l2-7.7h-5.8v-5.7h7.2l2.5-9.9H163.9z M165.3,157.8h-5.4l-2,7.7h5.4L165.3,157.8z"/>
		<path fill="#FFAA00" d="M196.4,142.3l-2.5,9.9h5.4l2.5-9.9h5.9l-2.6,9.9h5.1v5.7h-6.5l-2,7.7h5.4v5.7h-6.8l-2.5,9.8H192l2.5-9.8
			h-5.4l-2.5,9.8h-5.8l2.5-9.8h-5.5v-5.7h6.9l2-7.7h-5.8v-5.7h7.2l2.5-9.9H196.4z M197.8,157.8h-5.4l-2,7.7h5.4L197.8,157.8z"/>
		<path fill="#FFAA00" d="M214.8,148.5v-6.9h23.4v6.9h-7.8v25.7h7.8v6.9h-23.4v-6.9h7.8v-25.7L214.8,148.5L214.8,148.5z"/>
		<path fill="#FFAA00" d="M246.4,141.7h8.3c6.4,0,11.1,1.5,13.9,4.6c2.8,3.1,4.2,8.1,4.2,15c0,7-1.4,12-4.2,15.1
			c-2.8,3.1-7.5,4.6-13.9,4.6h-8.3L246.4,141.7L246.4,141.7z M254.2,148.7V174h2.1c3.1,0,5.2-1,6.5-2.9s2-5.2,2-9.8
			c0-4.6-0.7-7.8-2-9.8c-1.3-1.9-3.5-2.9-6.5-2.9L254.2,148.7L254.2,148.7z"/>
		<path fill="#FFFFFF" d="M293.9,142.3l-2.5,9.9h5.4l2.5-9.9h5.9l-2.6,9.9h5.1v5.7h-6.5l-2,7.7h5.4v5.7h-6.8l-2.5,9.8h-5.8l2.5-9.8
			h-5.4l-2.5,9.8h-5.8l2.5-9.8h-5.5v-5.7h6.9l2-7.7h-5.8v-5.7h7.2l2.5-9.9H293.9z M295.4,157.8H290l-2,7.7h5.4L295.4,157.8z"/>
		<path fill="#FFAA00" d="M336.3,179.9c-1.2,0.6-2.5,1.1-3.9,1.4s-2.8,0.5-4.3,0.5c-5.3,0-9.4-1.7-12.2-5.2
			c-2.8-3.5-4.2-8.6-4.2-15.2s1.4-11.7,4.2-15.2c2.8-3.5,6.8-5.2,12.2-5.2c1.5,0,2.9,0.2,4.3,0.5s2.7,0.8,3.8,1.4v8.6
			c-1.3-1.2-2.6-2.1-3.9-2.7c-1.3-0.6-2.6-0.9-3.9-0.9c-2.8,0-5,1.1-6.4,3.4c-1.4,2.3-2.2,5.6-2.2,10.1c0,4.4,0.7,7.8,2.2,10
			c1.5,2.3,3.6,3.4,6.4,3.4c1.3,0,2.6-0.3,3.9-0.9s2.6-1.5,3.9-2.7v8.7H336.3z"/>
		<path fill="#FFAA00" d="M351.8,141.7h9.5l10.6,39.4h-7.8l-2.4-9.7h-10.4L349,181h-7.8L351.8,141.7z M356.5,148.8l-3.7,16.1h7.4
			L356.5,148.8z"/>
		<path fill="#FFAA00" d="M394.1,162.4c0.8,0.2,1.4,0.5,2,1.1s1.3,1.7,2.1,3.3l7.1,14.2h-8.5l-4.7-9.9c-0.1-0.3-0.3-0.7-0.6-1.2
			c-1.4-3-3-4.5-4.9-4.5h-2.5V181h-7.8v-39.4h11.2c5.1,0,8.7,0.9,10.9,2.7c2.2,1.8,3.3,4.7,3.3,8.8c0,2.7-0.7,4.9-2,6.5
			C398.5,161.2,396.6,162.1,394.1,162.4z M384.1,148.2v10.7h3.7c2.1,0,3.7-0.4,4.6-1.3c0.9-0.8,1.4-2.2,1.4-4.1
			c0-1.9-0.5-3.3-1.4-4.1s-2.4-1.2-4.6-1.2H384.1z"/>
		<path fill="#FFAA00" d="M408.9,141.7h8.3c6.4,0,11.1,1.5,13.9,4.6s4.2,8.1,4.2,15c0,7-1.4,12-4.2,15.1s-7.5,4.6-13.9,4.6h-8.3
			V141.7z M416.7,148.7V174h2.1c3.1,0,5.2-1,6.5-2.9s2-5.2,2-9.8c0-4.6-0.7-7.8-2-9.8c-1.3-1.9-3.5-2.9-6.5-2.9L416.7,148.7
			L416.7,148.7z"/>
		<path fill="#FFFFFF" d="M456.5,142.3l-2.5,9.9h5.4l2.5-9.9h5.9l-2.6,9.9h5.1v5.7h-6.5l-2,7.7h5.4v5.7h-6.8l-2.5,9.8h-5.8l2.5-9.8
			h-5.4l-2.5,9.8h-5.8l2.5-9.8h-5.5v-5.7h6.9l2-7.7H441v-5.7h7.2l2.5-9.9H456.5z M457.9,157.8h-5.4l-2,7.7h5.4L457.9,157.8z"/>
		<path fill="#0099CC" d="M489,142.3l-2.5,9.9h5.4l2.5-9.9h5.9l-2.6,9.9h5.1v5.7h-6.5l-2,7.7h5.4v5.7h-6.8l-2.5,9.8h-5.8l2.5-9.8
			h-5.4l-2.5,9.8h-5.8l2.5-9.8h-5.5v-5.7h6.9l2-7.7h-5.8v-5.7h7.2l2.5-9.9H489z M490.4,157.8H485l-2,7.7h5.4L490.4,157.8z"/>
		<path fill="#0099CC" d="M521.5,142.3l-2.5,9.9h5.4l2.5-9.9h5.9l-2.6,9.9h5.1v5.7h-6.5l-2,7.7h5.4v5.7h-6.8L523,181h-5.8l2.5-9.8
			h-5.4l-2.5,9.8H506l2.5-9.8H503v-5.7h6.9l2-7.7h-5.8v-5.7h7.2l2.5-9.9h5.7V142.3z M523,157.8h-5.4l-2,7.7h5.4L523,157.8z"/>
		<path fill="#0099CC" d="M554,142.3l-2.5,9.9h5.4l2.5-9.9h5.9l-2.6,9.9h5.1v5.7h-6.5l-2,7.7h5.4v5.7h-6.8l-2.5,9.8h-5.8l2.5-9.8
			h-5.4l-2.5,9.8h-5.8l2.5-9.8h-5.5v-5.7h6.9l2-7.7h-5.8v-5.7h7.2l2.5-9.9H554z M555.5,157.8h-5.4l-2,7.7h5.4L555.5,157.8z"/>
		<path d="M587.1,140v54h-6v-54H587.1z"/>
		<path d="M34.4,194v54h-6v-54H34.4z"/>
		<path fill="#0099CC" d="M50.4,215.9h27.9v7.1H50.4V215.9z"/>
		<path fill="#0099CC" d="M82.9,215.9h27.9v7.1H82.9V215.9z"/>
		<path fill="#0099CC" d="M115.4,215.9h27.9v7.1h-27.9V215.9z"/>
		<path fill="#0099CC" d="M147.9,215.9h27.9v7.1h-27.9V215.9z"/>
		<path fill="#0099CC" d="M180.4,215.9h27.9v7.1h-27.9V215.9z"/>
		<path fill="#0099CC" d="M213,215.9h27.9v7.1H213V215.9z"/>
		<path fill="#0099CC" d="M245.5,215.9h27.9v7.1h-27.9V215.9z"/>
		<path fill="#0099CC" d="M278,215.9h27.9v7.1H278V215.9z"/>
		<path fill="#0099CC" d="M310.5,215.9h27.9v7.1h-27.9V215.9z"/>
		<path fill="#0099CC" d="M343,215.9h27.9v7.1H343V215.9z"/>
		<path fill="#0099CC" d="M375.5,215.9h27.9v7.1h-27.9V215.9z"/>
		<path fill="#0099CC" d="M408,215.9h28v7.1h-28V215.9z"/>
		<path fill="#0099CC" d="M440.5,215.9h27.9v7.1h-27.9V215.9z"/>
		<path fill="#0099CC" d="M473,215.9h28v7.1h-28V215.9z"/>
		<path fill="#0099CC" d="M505.5,215.9h27.9v7.1h-27.9L505.5,215.9L505.5,215.9z"/>
		<path fill="#0099CC" d="M538.1,215.9H566v7.1h-27.9V215.9z"/>
		<path d="M587.1,194v54h-6v-54H587.1z"/>
		<path d="M34.4,248v54h-6v-54H34.4z"/>
		<path fill="#FFFFFF" d="M66.4,250.3l-2.5,9.9h5.4l2.5-9.9h5.9l-2.6,9.9h5.1v5.7h-6.5l-2,7.7h5.4v5.7h-6.8l-2.5,9.8H62l2.5-9.8H59
			l-2.5,9.8h-5.8l2.5-9.8h-5.5v-5.7h6.9l2-7.7h-5.8v-5.7H58l2.5-9.9H66.4z M67.8,265.8h-5.4l-2,7.7h5.4L67.8,265.8z"/>
		<path d="M112.7,294v5.3H80.2V294H112.7z"/>
		<path d="M145.2,294v5.3h-32.5V294H145.2z"/>
		<path d="M177.8,294v5.3h-32.5V294H177.8z"/>
		<path d="M210.3,294v5.3h-32.5V294H210.3z"/>
		<path fill="#FFFFFF" d="M228.9,250.3l-2.5,9.9h5.4l2.5-9.9h5.9l-2.6,9.9h5.1v5.7h-6.5l-2,7.7h5.4v5.7h-6.8l-2.5,9.8h-5.8l2.5-9.8
			h-5.4l-2.5,9.8h-5.8l2.5-9.8h-5.5v-5.7h6.9l2-7.7h-5.8v-5.7h7.2l2.5-9.9H228.9z M230.4,265.8H225l-2,7.7h5.4L230.4,265.8z"/>
		<path fill="#FFFFFF" d="M261.4,250.3l-2.5,9.9h5.4l2.5-9.9h5.9l-2.6,9.9h5.1v5.7h-6.5l-2,7.7h5.4v5.7h-6.8l-2.5,9.8H257l2.5-9.8
			h-5.4l-2.5,9.8h-5.8l2.5-9.8h-5.5v-5.7h6.9l2-7.7h-5.8v-5.7h7.2l2.5-9.9H261.4z M262.9,265.8h-5.4l-2,7.7h5.4L262.9,265.8z"/>
		<path fill="#FFFFFF" d="M293.9,250.3l-2.5,9.9h5.4l2.5-9.9h5.9l-2.6,9.9h5.1v5.7h-6.5l-2,7.7h5.4v5.7h-6.8l-2.5,9.8h-5.8l2.5-9.8
			h-5.4l-2.5,9.8h-5.8l2.5-9.8h-5.5v-5.7h6.9l2-7.7h-5.8v-5.7h7.2l2.5-9.9H293.9z M295.4,265.8H290l-2,7.7h5.4L295.4,265.8z"/>
		<path fill="#FFFFFF" d="M326.4,250.3l-2.5,9.9h5.4l2.5-9.9h5.9l-2.6,9.9h5.1v5.7h-6.5l-2,7.7h5.4v5.7h-6.8l-2.5,9.8H322l2.5-9.8
			h-5.4l-2.5,9.8h-5.8l2.5-9.8h-5.5v-5.7h6.9l2-7.7h-5.8v-5.7h7.2l2.5-9.9H326.4z M327.9,265.8h-5.4l-2,7.7h5.4L327.9,265.8z"/>
		<path fill="#FFFFFF" d="M358.9,250.3l-2.5,9.9h5.4l2.5-9.9h5.9l-2.6,9.9h5.1v5.7h-6.5l-2,7.7h5.4v5.7h-6.8l-2.5,9.8h-5.8l2.5-9.8
			h-5.4l-2.5,9.8h-5.8l2.5-9.8h-5.5v-5.7h6.9l2-7.7h-5.8v-5.7h7.2l2.5-9.9H358.9z M360.4,265.8H355l-2,7.7h5.4L360.4,265.8z"/>
		<path fill="#FFFFFF" d="M391.5,250.3l-2.5,9.9h5.4l2.5-9.9h5.9l-2.6,9.9h5.1v5.7h-6.5l-2,7.7h5.4v5.7h-6.8l-2.5,9.8h-5.8l2.5-9.8
			h-5.4l-2.5,9.8h-5.8l2.5-9.8h-5.5v-5.7h6.9l2-7.7H376v-5.7h7.2l2.5-9.9H391.5z M392.9,265.8h-5.4l-2,7.7h5.4L392.9,265.8z"/>
		<path fill="#FFFFFF" d="M424,250.3l-2.5,9.9h5.4l2.5-9.9h5.9l-2.6,9.9h5.1v5.7h-6.5l-2,7.7h5.4v5.7h-6.8l-2.5,9.8h-5.8l2.5-9.8
			h-5.4l-2.5,9.8h-5.8l2.5-9.8h-5.5v-5.7h6.9l2-7.7h-5.8v-5.7h7.2l2.5-9.9H424z M425.4,265.8H420l-2,7.7h5.4L425.4,265.8z"/>
		<path fill="#FFFFFF" d="M456.5,250.3l-2.5,9.9h5.4l2.5-9.9h5.9l-2.6,9.9h5.1v5.7h-6.5l-2,7.7h5.4v5.7h-6.8l-2.5,9.8h-5.8l2.5-9.8
			h-5.4l-2.5,9.8h-5.8l2.5-9.8h-5.5v-5.7h6.9l2-7.7H441v-5.7h7.2l2.5-9.9H456.5z M457.9,265.8h-5.4l-2,7.7h5.4L457.9,265.8z"/>
		<path fill="#FFFFFF" d="M489,250.3l-2.5,9.9h5.4l2.5-9.9h5.9l-2.6,9.9h5.1v5.7h-6.5l-2,7.7h5.4v5.7h-6.8l-2.5,9.8h-5.8l2.5-9.8
			h-5.4l-2.5,9.8h-5.8l2.5-9.8h-5.5v-5.7h6.9l2-7.7h-5.8v-5.7h7.2l2.5-9.9H489z M490.4,265.8H485l-2,7.7h5.4L490.4,265.8z"/>
		<path fill="#FFFFFF" d="M521.5,250.3l-2.5,9.9h5.4l2.5-9.9h5.9l-2.6,9.9h5.1v5.7h-6.5l-2,7.7h5.4v5.7h-6.8L523,289h-5.8l2.5-9.8
			h-5.4l-2.5,9.8H506l2.5-9.8H503v-5.7h6.9l2-7.7h-5.8v-5.7h7.2l2.5-9.9h5.7V250.3z M523,265.8h-5.4l-2,7.7h5.4L523,265.8z"/>
		<path fill="#FFFFFF" d="M554,250.3l-2.5,9.9h5.4l2.5-9.9h5.9l-2.6,9.9h5.1v5.7h-6.5l-2,7.7h5.4v5.7h-6.8l-2.5,9.8h-5.8l2.5-9.8
			h-5.4l-2.5,9.8h-5.8l2.5-9.8h-5.5v-5.7h6.9l2-7.7h-5.8v-5.7h7.2l2.5-9.9H554z M555.5,265.8h-5.4l-2,7.7h5.4L555.5,265.8z"/>
		<path d="M587.1,248v54h-6v-54H587.1z"/>
		<path d="M34.4,302v54h-6v-54H34.4z"/>
		<path d="M66.9,302v54h-6v-54H66.9z"/>
		<path fill="#DAF6FF" d="M98.9,304.3l-2.5,9.9h5.4l2.5-9.9h5.9l-2.6,9.9h5.1v5.7h-6.5l-2,7.7h5.4v5.7h-6.8l-2.5,9.8h-5.8l2.5-9.8
			h-5.4l-2.5,9.8h-5.8l2.5-9.8h-5.5v-5.7h6.9l2-7.7h-5.8v-5.7h7.2l2.5-9.9H98.9z M100.3,319.8h-5.4l-2,7.7h5.4L100.3,319.8z"/>
		<path fill="#DAF6FF" d="M131.4,304.3l-2.5,9.9h5.4l2.5-9.9h5.9l-2.6,9.9h5.1v5.7h-6.5l-2,7.7h5.4v5.7h-6.8l-2.5,9.8H127l2.5-9.8
			h-5.4l-2.5,9.8h-5.8l2.5-9.8h-5.5v-5.7h6.9l2-7.7h-5.8v-5.7h7.2l2.5-9.9H131.4z M132.8,319.8h-5.4l-2,7.7h5.4L132.8,319.8z"/>
		<path fill="#DAF6FF" d="M163.9,304.3l-2.5,9.9h5.4l2.5-9.9h5.9l-2.6,9.9h5.1v5.7h-6.5l-2,7.7h5.4v5.7h-6.8l-2.5,9.8h-5.8l2.5-9.8
			h-5.4l-2.5,9.8h-5.8l2.5-9.8h-5.5v-5.7h6.9l2-7.7h-5.8v-5.7h7.2l2.5-9.9H163.9z M165.3,319.8h-5.4l-2,7.7h5.4L165.3,319.8z"/>
		<path fill="#DAF6FF" d="M196.4,304.3l-2.5,9.9h5.4l2.5-9.9h5.9l-2.6,9.9h5.1v5.7h-6.5l-2,7.7h5.4v5.7h-6.8l-2.5,9.8H192l2.5-9.8
			h-5.4l-2.5,9.8h-5.8l2.5-9.8h-5.5v-5.7h6.9l2-7.7h-5.8v-5.7h7.2l2.5-9.9H196.4z M197.8,319.8h-5.4l-2,7.7h5.4L197.8,319.8z"/>
		<path d="M229.5,302v54h-6v-54H229.5z"/>
		<path fill="#0099CC" d="M293.9,304.3l-2.5,9.9h5.4l2.5-9.9h5.9l-2.6,9.9h5.1v5.7h-6.5l-2,7.7h5.4v5.7h-6.8l-2.5,9.8h-5.8l2.5-9.8
			h-5.4l-2.5,9.8h-5.8l2.5-9.8h-5.5v-5.7h6.9l2-7.7h-5.8v-5.7h7.2l2.5-9.9H293.9z M295.4,319.8H290l-2,7.7h5.4L295.4,319.8z"/>
		<path d="M311.4,303.7h7.8v15h9.7v-15h7.8V343h-7.8v-17.5h-9.7V343h-7.8V303.7z"/>
		<path d="M369.5,326.2V343h-7.7v-3.3c-0.9,1.3-2.1,2.3-3.6,3s-3.1,1.1-4.8,1.1c-3.4,0-6-0.9-7.8-2.7c-1.9-1.8-2.8-4.3-2.8-7.4
			c0-3.4,1.1-6,3.3-7.6s5.7-2.5,10.4-2.5h5.4v-1.3c0-1.2-0.5-2.2-1.4-2.8s-2.2-1-4-1s-3.6,0.2-5.4,0.7c-1.7,0.5-3.5,1.2-5.4,2.2
			v-6.6c1.7-0.7,3.4-1.2,5.2-1.6s3.6-0.5,5.6-0.5c4.8,0,8.2,1,10.1,2.9S369.5,321.2,369.5,326.2z M358.8,329.2c-2.9,0-4.9,0.4-6,1.1
			s-1.7,2-1.7,3.8c0,1.3,0.4,2.4,1.2,3.2s1.9,1.2,3.2,1.2c2,0,3.6-0.8,4.7-2.3s1.7-3.7,1.7-6.4v-0.5h-3.1V329.2z"/>
		<path d="M398.9,314.4v6.8c-1.4-0.9-2.9-1.6-4.4-2.1s-3.1-0.7-4.6-0.7c-1.7,0-3,0.3-3.9,0.8s-1.3,1.2-1.3,2.2
			c0,1.4,1.9,2.5,5.6,3.4l0.3,0.1l2.2,0.5c2.8,0.7,4.9,1.7,6.2,3.2c1.3,1.5,2,3.5,2,6c0,3-1,5.3-3,6.8s-5,2.3-9,2.3
			c-1.8,0-3.6-0.2-5.5-0.5s-3.8-0.8-5.7-1.4V335c1.7,1,3.4,1.7,5.2,2.2c1.8,0.5,3.5,0.8,5.1,0.8c1.8,0,3.2-0.3,4.1-0.8
			s1.4-1.3,1.4-2.3s-0.3-1.7-1-2.3c-0.7-0.5-2.2-1.1-4.7-1.7l-2.1-0.5c-3-0.7-5.1-1.7-6.5-3.1s-2-3.3-2-5.7c0-2.8,1-5.1,3.1-6.6
			s4.9-2.4,8.7-2.4c1.7,0,3.3,0.1,5,0.4C395.8,313.5,397.4,313.9,398.9,314.4z"/>
		<path d="M433.6,323.9V343h-7.7v-18c0-2.1-0.3-3.6-0.9-4.6c-0.6-0.9-1.6-1.4-3-1.4s-2.5,0.6-3.3,1.9c-0.8,1.2-1.2,3-1.2,5.2V343
			h-7.7v-41h7.7v15.9c0.5-1.6,1.5-2.9,2.8-3.8s2.9-1.3,4.8-1.3c2.8,0,4.9,0.9,6.3,2.8C432.9,317.4,433.6,320.2,433.6,323.9z"/>
		<path d="M456,305.1v8.4h10.1v5.9H456v14c0,1.3,0.3,2.3,1,2.8c0.6,0.6,1.7,0.9,3.2,0.9h5.9v5.9h-6.5c-4.4,0-7.4-0.7-9-2.1
			s-2.3-4-2.3-7.9v-13.6h-7.5v-5.9h7.5v-8.4L456,305.1L456,305.1z"/>
		<path d="M499.6,326.2V343h-7.7v-3.3c-0.9,1.3-2.1,2.3-3.6,3s-3.1,1.1-4.8,1.1c-3.4,0-6-0.9-7.8-2.7c-1.9-1.8-2.8-4.3-2.8-7.4
			c0-3.4,1.1-6,3.3-7.6s5.7-2.5,10.4-2.5h5.4v-1.3c0-1.2-0.5-2.2-1.4-2.8s-2.2-1-4-1s-3.6,0.2-5.4,0.7c-1.7,0.5-3.5,1.2-5.4,2.2
			v-6.6c1.7-0.7,3.4-1.2,5.2-1.6s3.6-0.5,5.6-0.5c4.8,0,8.2,1,10.1,2.9S499.6,321.2,499.6,326.2z M488.8,329.2c-2.9,0-4.9,0.4-6,1.1
			s-1.7,2-1.7,3.8c0,1.3,0.4,2.4,1.2,3.2s1.9,1.2,3.2,1.2c2,0,3.6-0.8,4.7-2.3s1.7-3.7,1.7-6.4v-0.5h-3.1V329.2z"/>
		<path d="M531.8,340.8c0,4.7-1.1,8.1-3.2,10.2c-2.1,2.1-5.6,3.2-10.4,3.2c-1.6,0-3.2-0.1-4.8-0.4c-1.6-0.2-3.2-0.6-4.8-1.1v-7.1
			c1.5,0.8,2.9,1.4,4.5,1.8c1.6,0.4,3.1,0.6,4.7,0.6c2.2,0,3.8-0.5,4.8-1.5s1.6-2.6,1.6-4.8v-3.2c-0.8,1.4-1.8,2.5-3,3.1
			s-2.8,1-4.6,1c-3.4,0-6.1-1.3-8-4s-3-6.2-3-10.7c0-4.7,1-8.4,3-11.1s4.6-4.1,8-4.1c1.7,0,3.2,0.4,4.5,1.2s2.4,1.9,3.1,3.3v-3.8
			h7.7L531.8,340.8L531.8,340.8z M524,327.8c0-2.6-0.5-4.8-1.5-6.3c-1-1.6-2.3-2.4-4-2.4c-1.6,0-2.9,0.8-3.9,2.4s-1.5,3.7-1.5,6.4
			c0,2.7,0.5,4.8,1.5,6.4s2.3,2.4,3.9,2.4c1.6,0,3-0.8,4-2.4C523.5,332.6,524,330.4,524,327.8z"/>
		<path d="M587.1,302v54h-6v-54H587.1z"/>
		<path d="M34.4,356v54h-6v-54H34.4z"/>
		<path d="M66.9,356v54h-6v-54H66.9z"/>
		<path fill="#DAF6FF" d="M98.9,358.3l-2.5,9.9h5.4l2.5-9.9h5.9l-2.6,9.9h5.1v5.7h-6.5l-2,7.7h5.4v5.7h-6.8l-2.5,9.8h-5.8l2.5-9.8
			h-5.4l-2.5,9.8h-5.8l2.5-9.8h-5.5v-5.7h6.9l2-7.7h-5.8v-5.7h7.2l2.5-9.9H98.9z M100.3,373.8h-5.4l-2,7.7h5.4L100.3,373.8z"/>
		<path fill="#DAF6FF" d="M196.4,358.3l-2.5,9.9h5.4l2.5-9.9h5.9l-2.6,9.9h5.1v5.7h-6.5l-2,7.7h5.4v5.7h-6.8l-2.5,9.8H192l2.5-9.8
			h-5.4l-2.5,9.8h-5.8l2.5-9.8h-5.5v-5.7h6.9l2-7.7h-5.8v-5.7h7.2l2.5-9.9H196.4z M197.8,373.8h-5.4l-2,7.7h5.4L197.8,373.8z"/>
		<path d="M229.5,356v54h-6v-54H229.5z"/>
		<path fill="#0099CC" d="M293.9,358.3l-2.5,9.9h5.4l2.5-9.9h5.9l-2.6,9.9h5.1v5.7h-6.5l-2,7.7h5.4v5.7h-6.8l-2.5,9.8h-5.8l2.5-9.8
			h-5.4l-2.5,9.8h-5.8l2.5-9.8h-5.5v-5.7h6.9l2-7.7h-5.8v-5.7h7.2l2.5-9.9H293.9z M295.4,373.8H290l-2,7.7h5.4L295.4,373.8z"/>
		<path d="M311.1,357.6h12.7c4.4,0,7.7,0.8,9.9,2.5c2.2,1.7,3.3,4.1,3.3,7.4c0,2.5-0.7,4.5-2,5.9s-3.2,2.2-5.7,2.5
			c3,0.3,5.3,1.3,6.8,3s2.3,4.1,2.3,7.2c0,3.8-1.1,6.5-3.4,8.3s-6,2.6-11.2,2.6h-12.7L311.1,357.6L311.1,357.6z M318.6,363.8v9.1
			h5.2c2,0,3.4-0.4,4.2-1.1s1.3-1.9,1.3-3.5s-0.4-2.8-1.3-3.5s-2.2-1.1-4.2-1.1h-5.2V363.8z M318.6,379.2v11.7h5.2
			c2.5,0,4.2-0.4,5.2-1.3s1.5-2.3,1.5-4.4s-0.5-3.7-1.6-4.6s-2.8-1.4-5.1-1.4L318.6,379.2L318.6,379.2z"/>
		<path d="M344.5,386.7v-19.2h7.7v18c0,2.1,0.3,3.6,0.9,4.6s1.6,1.4,3,1.4s2.5-0.6,3.3-1.8s1.2-3,1.2-5.2v-17h7.7V397h-7.7v-4.4
			c-0.5,1.6-1.5,2.9-2.8,3.8s-2.9,1.3-4.7,1.3c-2.8,0-4.9-0.9-6.4-2.8S344.5,390.4,344.5,386.7z"/>
		<path d="M391,359.1v8.4h10.1v5.9H391v14c0,1.3,0.3,2.3,1,2.8c0.6,0.6,1.7,0.9,3.2,0.9h5.9v5.9h-6.5c-4.4,0-7.4-0.7-9-2.1
			s-2.3-4-2.3-7.9v-13.6h-7.5v-5.9h7.5v-8.4L391,359.1L391,359.1z"/>
		<path d="M423.5,359.1v8.4h10.1v5.9h-10.1v14c0,1.3,0.3,2.3,1,2.8c0.6,0.6,1.7,0.9,3.2,0.9h5.9v5.9h-6.5c-4.4,0-7.4-0.7-9-2.1
			s-2.3-4-2.3-7.9v-13.6h-7.5v-5.9h7.5v-8.4L423.5,359.1L423.5,359.1z"/>
		<path d="M440.4,382.3c0-4.8,1.2-8.5,3.7-11.3s5.8-4.2,10-4.2s7.5,1.4,10,4.2c2.5,2.8,3.7,6.6,3.7,11.3s-1.2,8.5-3.7,11.3
			s-5.8,4.2-10,4.2s-7.5-1.4-10-4.2C441.7,390.8,440.4,387.1,440.4,382.3z M454.1,373.1c-1.8,0-3.3,0.8-4.4,2.4s-1.6,3.9-1.6,6.8
			s0.5,5.2,1.6,6.8s2.5,2.4,4.4,2.4s3.3-0.8,4.4-2.4s1.6-3.9,1.6-6.8s-0.5-5.2-1.6-6.8C457.4,373.9,455.9,373.1,454.1,373.1z"/>
		<path d="M498.6,377.9V397h-7.7v-18c0-2.1-0.3-3.7-0.9-4.6s-1.6-1.4-3-1.4s-2.5,0.6-3.3,1.9c-0.8,1.2-1.2,3-1.2,5.2V397h-7.7v-29.5
			h7.7v4.4c0.5-1.6,1.5-2.9,2.8-3.8s2.9-1.3,4.8-1.3c2.8,0,4.9,0.9,6.3,2.8S498.6,374.2,498.6,377.9z"/>
		<path d="M529,368.4v6.8c-1.4-0.9-2.9-1.6-4.4-2.1s-3.1-0.7-4.6-0.7c-1.7,0-3,0.2-3.9,0.8c-0.9,0.5-1.3,1.2-1.3,2.2
			c0,1.4,1.9,2.5,5.6,3.4l0.3,0.1l2.2,0.5c2.8,0.7,4.9,1.7,6.2,3.2s2,3.5,2,6c0,3-1,5.3-3,6.8s-5,2.3-9,2.3c-1.8,0-3.6-0.2-5.5-0.5
			c-1.9-0.3-3.8-0.8-5.7-1.4V389c1.7,1,3.4,1.7,5.2,2.2c1.8,0.5,3.5,0.8,5.1,0.8c1.8,0,3.2-0.3,4.1-0.8s1.4-1.3,1.4-2.3
			s-0.3-1.7-1-2.3c-0.7-0.5-2.2-1.1-4.7-1.7l-2.1-0.5c-3-0.7-5.1-1.7-6.5-3.1s-2-3.3-2-5.7c0-2.8,1-5.1,3.1-6.6s4.9-2.4,8.7-2.4
			c1.7,0,3.3,0.1,5,0.4C525.8,367.5,527.4,367.9,529,368.4z"/>
		<path d="M587.1,356v54h-6v-54H587.1z"/>
		<path d="M34.4,410v54h-6v-54H34.4z"/>
		<path d="M66.9,410v54h-6v-54H66.9z"/>
		<path d="M112.7,456v5.3H80.2V456H112.7z"/>
		<path d="M145.2,456v5.3h-32.5V456H145.2z"/>
		<path d="M177.8,456v5.3h-32.5V456H177.8z"/>
		<path d="M210.3,456v5.3h-32.5V456H210.3z"/>
		<path d="M229.5,410v54h-6v-54H229.5z"/>
		<path fill="#0099CC" d="M293.9,412.3l-2.5,9.9h5.4l2.5-9.9h5.9l-2.6,9.9h5.1v5.7h-6.5l-2,7.7h5.4v5.7h-6.8l-2.5,9.8h-5.8l2.5-9.8
			h-5.4l-2.5,9.8h-5.8l2.5-9.8h-5.5v-5.7h6.9l2-7.7h-5.8v-5.7h7.2l2.5-9.9L293.9,412.3L293.9,412.3z M295.4,427.8H290l-2,7.7h5.4
			L295.4,427.8z"/>
		<path d="M327.9,451h-7.8v-32.6h-10v-6.8h27.8v6.8h-10V451z"/>
		<path d="M346.1,421.5h15.3v23.6h9.6v5.9h-26.9v-5.9h9.6v-17.7h-7.6V421.5z M353.7,407.1h7.7v9h-7.7V407.1z"/>
		<path d="M401.1,431.9V451h-7.7v-18c0-2.1-0.3-3.7-0.9-4.6c-0.6-0.9-1.6-1.4-3-1.4s-2.5,0.6-3.3,1.9c-0.8,1.2-1.2,3-1.2,5.2V451
			h-7.7v-29.5h7.7v4.4c0.5-1.6,1.5-2.9,2.8-3.8s2.9-1.3,4.8-1.3c2.8,0,4.9,0.9,6.3,2.8S401.1,428.2,401.1,431.9z"/>
		<path d="M424.1,454.2c-1,2.8-2.3,4.8-3.7,6.1c-1.4,1.3-3.2,1.9-5.3,1.9h-6.4v-5.9h3.1c1.6,0,2.7-0.3,3.5-0.8
			c0.7-0.5,1.5-1.8,2.2-3.7l0.6-1.6l-11.2-28.7h8.1l6.8,19.2l6.5-19.2h8.1L424.1,454.2z"/>
		<path d="M440.1,411.7h9.3l4.7,17.3l4.7-17.3h9.3V451h-6.7v-31.5l-4.2,17.2H451l-4.2-17.2V451h-6.7L440.1,411.7L440.1,411.7z"/>
		<path d="M498.9,449.9c-1.2,0.6-2.5,1.1-3.9,1.4s-2.8,0.5-4.3,0.5c-5.3,0-9.4-1.7-12.2-5.2s-4.2-8.6-4.2-15.2
			c0-6.6,1.4-11.7,4.2-15.2s6.8-5.2,12.2-5.2c1.5,0,2.9,0.2,4.3,0.5s2.7,0.8,3.8,1.4v8.6c-1.3-1.2-2.6-2.1-3.9-2.7
			c-1.3-0.6-2.6-0.9-3.9-0.9c-2.8,0-5,1.1-6.4,3.4c-1.4,2.3-2.2,5.6-2.2,10.1c0,4.4,0.7,7.8,2.2,10c1.5,2.3,3.6,3.4,6.4,3.4
			c1.3,0,2.6-0.3,3.9-0.9c1.3-0.6,2.6-1.5,3.9-2.7v8.7H498.9z"/>
		<path d="M531.8,451h-24.5v-39.4h24.5v6.9h-16.7v8.5h15.2v6.9h-15.2v10.3h16.7V451z"/>
		<path d="M587.1,410v54h-6v-54H587.1z"/>
		<path d="M24,465.7L44.7,510h-5.9l-20.7-44.4H24V465.7z"/>
		<path d="M80.2,510v5.3H47.7V510H80.2z"/>
		<path d="M112.7,510v5.3H80.2V510H112.7z"/>
		<path d="M145.2,510v5.3h-32.5V510H145.2z"/>
		<path d="M177.8,510v5.3h-32.5V510H177.8z"/>
		<path d="M210.3,510v5.3h-32.5V510H210.3z"/>
		<path d="M242.8,510v5.3h-32.5V510H242.8z"/>
		<path d="M275.3,510v5.3h-32.5V510H275.3z"/>
		<path d="M307.8,510v5.3h-32.5V510H307.8z"/>
		<path d="M340.3,510v5.3h-32.5V510H340.3z"/>
		<path d="M372.8,510v5.3h-32.5V510H372.8z"/>
		<path d="M405.3,510v5.3h-32.5V510H405.3z"/>
		<path d="M437.8,510v5.3h-32.5V510H437.8z"/>
		<path d="M470.3,510v5.3h-32.5V510H470.3z"/>
		<path d="M502.9,510v5.3h-32.5V510H502.9z"/>
		<path d="M535.4,510v5.3h-32.5V510H535.4z"/>
		<path d="M567.9,510v5.3h-32.5V510H567.9z"/>
		<path d="M591.6,465.7h5.8L576.7,510h-5.8L591.6,465.7z"/>
	</g>
	<g>
		<path d="M97.7,352.7h19.7v22.8H97.7V352.7z M97.7,400.5h19.7v23H97.7V400.5z"/>
		<path d="M158.3,329.1c14.4,0,25.1,3.8,31.9,11.5c6.8,7.7,10.3,19.6,10.3,35.8c0,16.1-3.4,28-10.3,35.7
			c-6.8,7.7-17.5,11.5-31.9,11.5h-19.2v-94.5L158.3,329.1L158.3,329.1z M158.1,413.1c10.8,0,18.3-2.6,22.5-7.9
			c4.3-5.3,6.4-14.9,6.4-28.7c0-14-2.1-23.6-6.4-28.9c-4.2-5.3-11.8-7.9-22.6-7.9h-6v73.5L158.1,413.1L158.1,413.1z"/>
	</g>
</g>
</svg>
